<?xml version="1.0" standalone="no"?>
<!DOCTYPE svg PUBLIC "-//W3C//DTD SVG 20010904//EN"
 "http://www.w3.org/TR/2001/REC-SVG-20010904/DTD/svg10.dtd">
<svg version="1.0" xmlns="http://www.w3.org/2000/svg"
 width="180.000000pt" height="180.000000pt" viewBox="0 0 180.000000 180.000000"
 preserveAspectRatio="xMidYMid meet">
<metadata>
Created by potrace 1.14, written by Peter Selinger 2001-2017
</metadata>
<g transform="translate(0.000000,180.000000) scale(0.100000,-0.100000)"
fill="#000000" stroke="none">
<path d="M150 1779 c-25 -11 -62 -39 -82 -61 -70 -77 -68 -54 -68 -813 0 -740
0 -737 55 -809 16 -21 49 -49 74 -64 l46 -27 704 -3 c773 -3 758 -4 832 57 19
16 46 51 59 77 l25 48 0 720 c0 676 -1 723 -18 754 -27 50 -56 79 -106 110
l-46 27 -715 2 c-695 2 -716 1 -760 -18z"/>
</g>
</svg>
