<svg width="181" height="45" viewBox="0 0 181 45" fill="none" xmlns="http://www.w3.org/2000/svg">
<path d="M28.3402 14.5641L53.2347 3.46387L52.4649 7.1858L28.3402 14.5641Z" fill="#F5A376"/>
<path d="M28.2089 14.1136L48.8042 4.23365L49.6396 0L28.2089 14.1136Z" fill="#79ABCA"/>
<path d="M26.9056 13.9431L4.77082 0.358704L5.77675 7.57077L26.9056 13.9431Z" fill="#79ABCA"/>
<path d="M7.4256 36.7208C6.07416 33.8911 8.46215 32.2903 9.6124 34.0135C10.7627 35.7367 12.2934 38.5665 12.2934 38.5665L18.5345 42.3802L14.9176 38.9338C14.9176 38.9338 12.2934 34.3722 11.0644 31.7961C9.83546 29.2201 12.0004 28.3541 13.0413 29.3382C14.0822 30.3222 18.3421 36.594 18.3421 36.594L24.6882 41.6411L17.826 32.7802C17.826 32.7802 15.1188 28.8439 15.4337 27.2432C16.9907 24.5359 19.1775 26.5084 19.1775 26.5084L27.9247 36.7121V15.6269L1.40753 7.8944C1.23309 7.84309 1.04864 7.83592 0.870743 7.87353C0.692847 7.91113 0.527077 7.99233 0.388323 8.10984C0.249568 8.22735 0.142173 8.37748 0.0757855 8.54675C0.00939801 8.71603 -0.0139013 8.89914 0.0079752 9.07965L3.68617 40.3159C3.72904 40.7155 3.88762 41.0939 4.14245 41.4046C4.39727 41.7154 4.73726 41.945 5.12071 42.0653L13.7804 44.7726L12.8314 43.7536C12.8314 43.7536 8.79454 39.5505 7.4256 36.7208Z" fill="#283064"/>
<path d="M54.3937 7.89438L27.9028 15.6269V36.712L28.2221 37.0882L35.5041 42.3802C35.5041 42.3802 34.4632 39.7954 35.5041 34.5077C36.545 29.2201 39.7684 29.3425 39.7684 29.3425L40.8093 41.0288C40.8093 41.0288 41.063 42.9313 41.2467 45L50.7068 42.0391C51.0801 41.9221 51.4117 41.6997 51.6615 41.3986C51.9114 41.0975 52.0689 40.7306 52.1151 40.3421L55.7976 9.084C55.8195 8.90294 55.796 8.71929 55.7294 8.54952C55.6628 8.37974 55.5551 8.22916 55.4159 8.11126C55.2768 7.99336 55.1106 7.91182 54.9322 7.87397C54.7537 7.83612 54.5687 7.84314 54.3937 7.89438V7.89438Z" fill="#EA6612"/>
<path d="M72.9475 22.6294C73.4389 23.3221 73.6895 24.157 73.661 25.0059C73.6752 25.792 73.4429 26.5628 72.9967 27.2102C72.5196 27.8714 71.8643 28.3833 71.1073 28.6862C70.1942 29.0424 69.2184 29.2098 68.2388 29.1783H62.4722C62.2231 29.2065 61.9707 29.1782 61.734 29.0954C61.4973 29.0127 61.2823 28.8776 61.105 28.7003C60.9277 28.523 60.7927 28.308 60.7099 28.0713C60.6272 27.8346 60.5989 27.5823 60.6271 27.3332V15.7459C60.6028 15.4986 60.6341 15.2491 60.7186 15.0155C60.8032 14.7819 60.9388 14.5702 61.1156 14.3957C61.2924 14.2212 61.506 14.0884 61.7407 14.0071C61.9754 13.9257 62.2253 13.8978 62.4722 13.9253H68.0223C69.3813 13.8541 70.7262 14.2309 71.8503 14.998C72.3011 15.3248 72.666 15.756 72.9137 16.2548C73.1614 16.7535 73.2844 17.3049 73.2723 17.8616C73.2868 18.6064 73.0631 19.3364 72.6339 19.9453C72.2047 20.5541 71.5923 21.0101 70.8859 21.2468C71.7058 21.4699 72.4299 21.9555 72.9475 22.6294V22.6294ZM64.5092 19.9084H67.3531C67.924 19.95 68.495 19.8307 69.0014 19.564C69.1717 19.4373 69.3063 19.2689 69.3925 19.075C69.4787 18.881 69.5135 18.6682 69.4935 18.4569C69.5149 18.2363 69.4811 18.0137 69.3952 17.8093C69.3094 17.6049 69.174 17.4251 69.0014 17.2859C68.5006 17.0025 67.927 16.8741 67.3531 16.9169H64.5092V19.9084ZM69.4295 25.8128C69.755 25.4792 69.9372 25.0316 69.9372 24.5655C69.9372 24.0994 69.755 23.6518 69.4295 23.3182C68.9131 23.0233 68.3198 22.8913 67.7271 22.9393H64.5092V26.1916H67.7418C68.336 26.2352 68.9295 26.098 69.4443 25.798L69.4295 25.8128Z" fill="#283064"/>
<path d="M116.153 27.4562C116.153 27.6919 116.105 27.9252 116.012 28.1418C115.919 28.3584 115.783 28.5537 115.611 28.7158C115.446 28.888 115.247 29.0248 115.027 29.1178C114.807 29.2109 114.571 29.2582 114.332 29.257C114.051 29.2502 113.775 29.185 113.521 29.0655C113.267 28.9461 113.04 28.775 112.856 28.5632L106.676 22.2308V27.3479C106.69 27.613 106.649 27.878 106.555 28.1262C106.461 28.3744 106.316 28.6003 106.13 28.7896C105.932 28.9727 105.7 29.1141 105.446 29.2054C105.192 29.2967 104.923 29.336 104.654 29.321C104.39 29.3408 104.126 29.3036 103.878 29.2117C103.63 29.1198 103.405 28.9755 103.218 28.7886C103.031 28.6018 102.887 28.3767 102.795 28.1289C102.703 27.8811 102.666 27.6164 102.686 27.3528V15.7459C102.673 15.4852 102.714 15.2246 102.805 14.9801C102.896 14.7356 103.037 14.5123 103.217 14.3239C103.41 14.1426 103.638 14.002 103.886 13.9107C104.135 13.8194 104.399 13.7792 104.664 13.7925C104.933 13.7774 105.202 13.8167 105.456 13.908C105.709 13.9993 105.942 14.1408 106.14 14.3239C106.325 14.51 106.469 14.7326 106.563 14.9774C106.657 15.2222 106.699 15.4839 106.686 15.7459V20.5186L112.777 14.378C112.935 14.1985 113.128 14.0538 113.345 13.953C113.561 13.8521 113.796 13.7974 114.035 13.7924C114.274 13.7873 114.511 13.8319 114.731 13.9234C114.952 14.0149 115.151 14.1513 115.316 14.3239C115.488 14.4837 115.624 14.6772 115.717 14.8923C115.81 15.1073 115.858 15.3393 115.857 15.5737C115.851 15.8254 115.792 16.0729 115.683 16.3001C115.575 16.5273 115.419 16.7291 115.228 16.8923L110.799 21.2566L115.611 26.1769C115.788 26.3391 115.927 26.5372 116.021 26.7579C116.114 26.9786 116.159 27.2167 116.153 27.4562V27.4562Z" fill="#283064"/>
<path d="M120.089 29.006C119.212 28.8094 118.378 28.4542 117.629 27.958C117.413 27.8016 117.232 27.6022 117.097 27.3725C116.98 27.1289 116.924 26.8603 116.935 26.5901C116.927 26.1796 117.067 25.7798 117.329 25.4634C117.431 25.3152 117.566 25.1933 117.725 25.1078C117.883 25.0222 118.059 24.9755 118.239 24.9714C118.423 24.9716 118.605 24.9998 118.78 25.055C119.007 25.141 119.225 25.2498 119.43 25.3797C119.983 25.6987 120.577 25.9404 121.196 26.0981C121.841 26.2474 122.502 26.32 123.164 26.3146C123.832 26.353 124.499 26.2227 125.103 25.9357C125.308 25.8315 125.479 25.6712 125.597 25.4735C125.714 25.2758 125.773 25.0488 125.767 24.8188C125.752 24.6329 125.687 24.4546 125.577 24.3035C125.468 24.1525 125.319 24.0345 125.147 23.9627C124.401 23.6153 123.609 23.3783 122.795 23.2591C121.631 23.042 120.5 22.6766 119.43 22.1717C118.733 21.852 118.142 21.3399 117.727 20.6956C117.359 19.9734 117.195 19.1639 117.255 18.3552C117.315 17.5466 117.596 16.7699 118.067 16.1099C118.65 15.3288 119.432 14.7174 120.33 14.3386C121.354 13.9013 122.459 13.6834 123.573 13.6989C124.524 13.6861 125.472 13.8037 126.392 14.0483C127.203 14.2714 127.968 14.638 128.65 15.1307C128.878 15.2853 129.067 15.4908 129.201 15.731C129.317 15.97 129.373 16.2334 129.364 16.4986C129.374 16.9071 129.24 17.3062 128.985 17.6253C128.885 17.7736 128.752 17.8958 128.595 17.9814C128.438 18.0671 128.263 18.1137 128.084 18.1174C127.918 18.1167 127.752 18.0918 127.592 18.0436C127.356 17.957 127.13 17.8448 126.918 17.709L126.298 17.3695C125.921 17.177 125.521 17.0316 125.108 16.9365C124.624 16.8255 124.128 16.771 123.632 16.7741C123.01 16.7458 122.393 16.8924 121.85 17.1973C121.648 17.3057 121.48 17.4668 121.362 17.6634C121.244 17.8601 121.182 18.0849 121.181 18.3142C121.173 18.5605 121.257 18.8011 121.417 18.9883C121.677 19.2118 121.98 19.3793 122.308 19.4803C122.937 19.6946 123.582 19.8592 124.237 19.9723C125.372 20.1913 126.474 20.5586 127.514 21.0646C128.201 21.3948 128.786 21.9049 129.206 22.5407C129.546 23.1505 129.716 23.8404 129.698 24.5384C129.714 25.4462 129.432 26.3343 128.896 27.0674C128.32 27.8278 127.543 28.4122 126.653 28.7551C125.586 29.1734 124.447 29.3773 123.302 29.3553C122.22 29.3745 121.141 29.2571 120.089 29.006V29.006Z" fill="#283064"/>
<path d="M145.414 27.8498C145.413 28.0519 145.368 28.2514 145.284 28.4348C145.199 28.6182 145.075 28.7812 144.922 28.9126C144.616 29.2059 144.208 29.3683 143.785 29.3653C143.375 29.3637 142.98 29.2093 142.678 28.9323L141.094 27.5201C140.408 28.1036 139.627 28.5661 138.786 28.888C137.974 29.2083 137.11 29.3752 136.237 29.38C135.244 29.3984 134.257 29.2107 133.339 28.8289C132.554 28.5025 131.873 27.9664 131.371 27.2791C130.903 26.6123 130.657 25.8153 130.668 25.0009C130.654 24.1566 130.888 23.3269 131.342 22.6146C131.893 21.8272 132.621 21.18 133.467 20.7252C132.629 19.9249 132.138 18.828 132.099 17.6697C132.086 16.9505 132.29 16.244 132.685 15.6425C133.097 15.0367 133.672 14.5593 134.343 14.2649C135.117 13.9226 135.957 13.7546 136.803 13.7728C137.922 13.712 139.024 14.062 139.903 14.7569C140.281 15.0803 140.581 15.4852 140.781 15.941C140.98 16.3969 141.074 16.892 141.054 17.3892C141.054 18.9408 140.215 20.1987 138.535 21.1631L140.769 23.1312C141.109 22.4332 141.336 21.686 141.443 20.9171C141.474 20.5095 141.661 20.1294 141.964 19.8549C142.266 19.5804 142.663 19.4323 143.072 19.441C143.279 19.4361 143.485 19.4737 143.677 19.5515C143.869 19.6294 144.043 19.7459 144.189 19.8937C144.338 20.0601 144.447 20.2581 144.508 20.4729C144.57 20.6877 144.581 20.9136 144.543 21.1336C144.386 22.5914 143.896 23.9936 143.111 25.2322L144.868 26.7723C145.028 26.9048 145.159 27.0689 145.253 27.2543C145.347 27.4396 145.401 27.6423 145.414 27.8498V27.8498ZM138.884 25.5717L135.544 22.6195C135.181 22.8424 134.883 23.1553 134.678 23.5279C134.473 23.9004 134.367 24.3198 134.373 24.7451C134.362 24.986 134.407 25.2262 134.502 25.4477C134.597 25.6692 134.742 25.8663 134.924 26.0244C135.339 26.3632 135.864 26.5382 136.4 26.5164C137.311 26.4905 138.186 26.1576 138.884 25.5717ZM135.868 16.6217C135.743 16.757 135.646 16.9158 135.583 17.089C135.519 17.2621 135.491 17.4462 135.499 17.6303C135.505 17.8912 135.58 18.1458 135.716 18.3684C135.94 18.7092 136.202 19.0229 136.498 19.3032C136.954 19.1068 137.364 18.8188 137.704 18.457C137.935 18.1816 138.061 17.8326 138.058 17.4729C138.067 17.3086 138.042 17.1443 137.984 16.9902C137.926 16.8362 137.838 16.6956 137.723 16.5774C137.611 16.4654 137.478 16.3775 137.33 16.3191C137.183 16.2608 137.025 16.2331 136.867 16.2379C136.683 16.2297 136.5 16.2596 136.328 16.3256C136.156 16.3917 135.999 16.4924 135.868 16.6217V16.6217Z" fill="#EA6612"/>
<path d="M161.247 14.3337C161.591 14.7214 161.767 15.2287 161.739 15.7459V27.5546C161.751 27.7933 161.713 28.0319 161.629 28.2554C161.544 28.4789 161.414 28.6825 161.247 28.8535C161.083 29.0178 160.887 29.1464 160.671 29.2311C160.456 29.3158 160.224 29.3547 159.993 29.3456C159.762 29.3523 159.532 29.3122 159.317 29.2276C159.102 29.143 158.907 29.0158 158.743 28.8535C158.575 28.6829 158.445 28.4793 158.36 28.2557C158.276 28.0321 158.238 27.7934 158.251 27.5546V21.1582L155.791 25.7144C155.609 26.0984 155.342 26.4352 155.008 26.6984C154.718 26.8943 154.375 26.999 154.024 26.999C153.674 26.999 153.331 26.8943 153.04 26.6984C152.707 26.4352 152.439 26.0984 152.258 25.7144L149.798 21.2861V27.5349C149.808 27.772 149.769 28.0086 149.685 28.2303C149.6 28.4519 149.471 28.654 149.306 28.824C149.139 28.9882 148.94 29.1166 148.722 29.2012C148.504 29.2858 148.27 29.3249 148.036 29.316C147.806 29.3227 147.577 29.2825 147.363 29.1979C147.149 29.1133 146.955 28.9861 146.791 28.824C146.624 28.6534 146.494 28.4498 146.409 28.2262C146.324 28.0026 146.287 27.7638 146.299 27.5251V15.7163C146.288 15.4572 146.329 15.1984 146.42 14.9557C146.511 14.7129 146.651 14.4913 146.831 14.3042C147.148 13.9961 147.561 13.8072 148.002 13.7695C148.442 13.7319 148.882 13.8478 149.247 14.0976C149.591 14.3544 149.867 14.6924 150.049 15.0816L154.039 22.5851L158.01 15.0816C158.457 14.2107 159.068 13.7777 159.83 13.7777C160.093 13.761 160.356 13.8021 160.601 13.8982C160.845 13.9942 161.066 14.1429 161.247 14.3337V14.3337Z" fill="#283064"/>
<path d="M163.762 28.7158C163.591 28.533 163.46 28.3175 163.375 28.0823C163.291 27.8472 163.255 27.5974 163.269 27.3479V15.7458C163.241 15.4967 163.27 15.2444 163.352 15.0077C163.435 14.771 163.57 14.556 163.747 14.3787C163.925 14.2014 164.14 14.0663 164.376 13.9836C164.613 13.9008 164.865 13.8725 165.115 13.9007H172.633C173.134 13.8671 173.632 14.0041 174.045 14.2894C174.208 14.4276 174.338 14.6015 174.423 14.7978C174.509 14.9941 174.547 15.2073 174.537 15.4211C174.537 16.4609 173.907 16.9808 172.648 16.9808H167.166V19.8887H172.2C173.459 19.8887 174.084 20.3808 174.084 21.4288C174.096 21.642 174.057 21.8549 173.972 22.0506C173.887 22.2462 173.757 22.4192 173.592 22.5555C173.182 22.8438 172.685 22.9811 172.185 22.9443H167.166V26.1129H172.633C173.892 26.1129 174.522 26.6328 174.522 27.6727C174.533 27.8864 174.494 28.0997 174.408 28.296C174.323 28.4922 174.194 28.6662 174.03 28.8043C173.617 29.0896 173.119 29.2266 172.618 29.193H165.129C164.881 29.2099 164.632 29.1763 164.397 29.0943C164.162 29.0122 163.946 28.8835 163.762 28.7158V28.7158Z" fill="#283064"/>
<path d="M84.3134 21.7339C84.3173 22.3105 84.1497 22.8752 83.8319 23.3563C83.5141 23.8374 83.0605 24.2132 82.5286 24.4358C81.9968 24.6585 81.4107 24.718 80.8449 24.6069C80.2792 24.4957 79.7592 24.2188 79.3511 23.8115C78.9431 23.4041 78.6654 22.8846 78.5532 22.3191C78.4411 21.7535 78.4996 21.1673 78.7214 20.6351C78.9432 20.1029 79.3182 19.6486 79.7987 19.3299C80.2793 19.0113 80.8437 18.8428 81.4203 18.8457C82.186 18.8483 82.9196 19.1532 83.4615 19.6942C84.0033 20.2351 84.3095 20.9682 84.3134 21.7339V21.7339Z" fill="#283064"/>
<path d="M96.9734 21.7339C96.9773 22.3098 96.81 22.8739 96.4929 23.3547C96.1757 23.8355 95.723 24.2113 95.192 24.4344C94.661 24.6575 94.0757 24.7179 93.5103 24.6079C92.945 24.498 92.425 24.2226 92.0163 23.8167C91.6077 23.4108 91.3288 22.8927 91.215 22.3281C91.1012 21.7635 91.1576 21.1778 91.3771 20.6453C91.5966 20.1128 91.9693 19.6575 92.4479 19.3371C92.9265 19.0167 93.4895 18.8457 94.0655 18.8456C94.8333 18.8456 95.57 19.1493 96.1147 19.6904C96.6595 20.2315 96.9682 20.966 96.9734 21.7339V21.7339Z" fill="#283064"/>
<path d="M93.662 13.7728C92.6167 13.7706 91.582 13.9815 90.6209 14.3926C89.6599 14.8038 88.7928 15.4065 88.0725 16.1641C87.2794 15.3861 86.3392 14.774 85.3068 14.3635C84.2745 13.9529 83.1707 13.7521 82.0599 13.7728C80.893 13.7673 79.7399 14.0256 78.6868 14.5284C77.6337 15.0312 76.7078 15.7654 75.9784 16.6763C75.249 17.5872 74.7348 18.6512 74.4743 19.7887C74.2139 20.9262 74.2138 22.1079 74.4742 23.2454C74.7346 24.3829 75.2487 25.4469 75.9781 26.3578C76.7075 27.2688 77.6333 28.0031 78.6864 28.5059C79.7395 29.0088 80.8925 29.2671 82.0595 29.2617C83.2264 29.2563 84.3771 28.9872 85.4254 28.4746L87.2508 30.9348C87.3079 31.0122 87.3819 31.0754 87.4672 31.1198C87.5525 31.1641 87.6468 31.1884 87.7429 31.1906H87.7576C87.8568 31.1849 87.9532 31.1555 88.0388 31.105C88.1243 31.0545 88.1966 30.9844 88.2497 30.9004L89.893 28.3516C91.0603 28.9466 92.3518 29.2569 93.662 29.257C94.6951 29.283 95.723 29.102 96.6851 28.7247C97.6472 28.3473 98.524 27.7812 99.264 27.0597C100.004 26.3382 100.592 25.4759 100.993 24.5236C101.395 23.5713 101.602 22.5483 101.602 21.5149C101.602 20.4814 101.395 19.4584 100.993 18.5061C100.592 17.5539 100.004 16.6916 99.264 15.9701C98.524 15.2486 97.6472 14.6825 96.6851 14.3051C95.723 13.9277 94.6951 13.7467 93.662 13.7728V13.7728ZM87.7183 29.4292L86.5226 27.8252C86.9732 27.502 87.3873 27.1308 87.7576 26.7181C88.0891 27.0636 88.4514 27.3782 88.8401 27.6579L87.7183 29.4292ZM93.662 27.9875C92.6222 27.9825 91.5967 27.7454 90.6603 27.2934C89.7239 26.8413 88.9003 26.1859 88.2497 25.3749V25.3749L88.2054 25.3257L88.1562 25.2814H88.1217L88.0627 25.2469L88.0135 25.2223H87.9495H87.8954H87.6543H87.5854H87.5362L87.4772 25.2518L87.4231 25.2863H87.3886L87.3394 25.3306L87.2951 25.3798C86.6361 26.2654 85.7615 26.9677 84.7544 27.4199C83.7473 27.8721 82.6413 28.059 81.5416 27.963C80.4418 27.867 79.3849 27.4912 78.4714 26.8714C77.5579 26.2516 76.8182 25.4083 76.3227 24.4219C75.8271 23.4355 75.5922 22.3386 75.6402 21.2358C75.6882 20.1329 76.0177 19.0606 76.5971 18.121C77.1766 17.1814 77.9868 16.4057 78.9508 15.8677C79.9147 15.3296 81.0003 15.0472 82.1042 15.0471C84.3774 15.0471 86.4833 15.9918 87.6002 17.5073C87.6105 17.5258 87.6238 17.5424 87.6395 17.5565L87.6887 17.6008H87.7183C87.7377 17.6167 87.7592 17.6299 87.7822 17.6401L87.8314 17.6647H87.8905C87.9099 17.6692 87.9301 17.6692 87.9495 17.6647H88.0086H88.1316H88.1906H88.2497H88.3087H88.3677L88.4219 17.6303H88.4563L88.5055 17.586L88.5498 17.5368C89.2245 16.6695 90.1088 15.9881 91.1195 15.5568C92.1301 15.1256 93.234 14.9586 94.327 15.0717C95.42 15.1847 96.4663 15.5741 97.3673 16.2031C98.2683 16.8321 98.9944 17.6801 99.4772 18.6672C99.9601 19.6542 100.184 20.748 100.127 21.8454C100.071 22.9427 99.7359 24.0077 99.1543 24.94C98.5726 25.8723 97.7632 26.6412 96.8024 27.1743C95.8416 27.7075 94.7608 27.9873 93.662 27.9875V27.9875Z" fill="#283064"/>
<path d="M80.7167 14.255L74.3154 10.86L76.3524 16.7791" stroke="#283064" stroke-width="1.02834" stroke-linecap="round" stroke-linejoin="round"/>
<path d="M95.0692 14.1664L101.471 10.7665L99.4335 16.6905" stroke="#283064" stroke-width="1.02834" stroke-linecap="round" stroke-linejoin="round"/>
<path d="M82.1386 35.3041C82.302 35.3069 82.4576 35.3741 82.5716 35.4911C82.6317 35.544 82.6799 35.6091 82.713 35.682C82.7461 35.755 82.7633 35.8341 82.7635 35.9142C82.7615 36.0628 82.7035 36.2051 82.6012 36.3128L80.7265 38.5269V40.7607C80.7317 40.8513 80.7178 40.9419 80.6855 41.0267C80.6533 41.1115 80.6036 41.1885 80.5395 41.2527C80.4729 41.3124 80.3952 41.3584 80.3107 41.3879C80.2263 41.4175 80.1368 41.4301 80.0475 41.4249C79.8676 41.4322 79.6917 41.3706 79.5555 41.2527C79.4915 41.1885 79.4417 41.1115 79.4095 41.0267C79.3773 40.9419 79.3633 40.8513 79.3685 40.7607V38.5269L77.5136 36.3029C77.4614 36.2506 77.4201 36.1884 77.3923 36.12C77.3644 36.0516 77.3504 35.9783 77.3512 35.9044C77.3508 35.8251 77.3667 35.7466 77.3981 35.6738C77.4294 35.601 77.4754 35.5354 77.5332 35.4812C77.5874 35.423 77.6528 35.3763 77.7256 35.3442C77.7983 35.312 77.8769 35.295 77.9564 35.2943C78.0432 35.2961 78.1285 35.3174 78.206 35.3566C78.2835 35.3957 78.3512 35.4518 78.4041 35.5206L80.0623 37.5428L81.6958 35.5501C81.7454 35.4775 81.8113 35.4175 81.8882 35.3748C81.965 35.3321 82.0508 35.3079 82.1386 35.3041V35.3041Z" fill="#283064"/>
<path d="M84.4167 41.0805C83.9761 40.8309 83.6198 40.4558 83.3933 40.0029C83.1568 39.49 83.0343 38.9318 83.0343 38.3669C83.0343 37.802 83.1568 37.2439 83.3933 36.7309C83.6199 36.2794 83.9763 35.9058 84.4167 35.6583C84.899 35.4093 85.4338 35.2794 85.9765 35.2794C86.5192 35.2794 87.054 35.4093 87.5362 35.6583C87.9767 35.9058 88.3331 36.2794 88.5596 36.7309C88.7962 37.2439 88.9187 37.802 88.9187 38.3669C88.9187 38.9318 88.7962 39.49 88.5596 40.0029C88.3331 40.4558 87.9768 40.8309 87.5362 41.0805C87.055 41.3326 86.5198 41.4644 85.9765 41.4644C85.4332 41.4644 84.898 41.3326 84.4167 41.0805V41.0805ZM87.1623 39.8996C87.4419 39.4382 87.5898 38.9089 87.5898 38.3694C87.5898 37.8298 87.4419 37.3006 87.1623 36.8392C87.0119 36.6734 86.8285 36.5408 86.6239 36.4502C86.4192 36.3595 86.1979 36.3126 85.974 36.3126C85.7502 36.3126 85.5288 36.3595 85.3242 36.4502C85.1195 36.5408 84.9361 36.6734 84.7858 36.8392C84.5061 37.3006 84.3582 37.8298 84.3582 38.3694C84.3582 38.9089 84.5061 39.4382 84.7858 39.8996C84.928 40.0732 85.1089 40.2112 85.3139 40.3026C85.5189 40.394 85.7424 40.4363 85.9666 40.4261C86.193 40.436 86.4185 40.3936 86.6259 40.3023C86.8332 40.211 87.0167 40.0732 87.1623 39.8996V39.8996Z" fill="#283064"/>
<path d="M90.7344 40.8099C90.5006 40.5521 90.3216 40.2496 90.2082 39.9206C90.0949 39.5915 90.0496 39.2429 90.0751 38.8959V35.9732C90.0686 35.8834 90.081 35.7932 90.1115 35.7084C90.142 35.6237 90.19 35.5463 90.2522 35.4812C90.3165 35.4175 90.3937 35.3683 90.4786 35.3369C90.5634 35.3055 90.654 35.2926 90.7443 35.2991C90.8346 35.292 90.9253 35.3046 91.0103 35.336C91.0953 35.3674 91.1724 35.417 91.2363 35.4812C91.2979 35.5465 91.3451 35.6241 91.3748 35.7088C91.4045 35.7936 91.4159 35.8837 91.4085 35.9732V38.9598C91.3703 39.3463 91.4716 39.7337 91.6939 40.0521C91.9541 40.2935 92.2959 40.4277 92.6509 40.4277C93.0058 40.4277 93.3476 40.2935 93.6079 40.0521C93.8489 39.7429 93.968 39.356 93.9425 38.9647V35.9781C93.935 35.8886 93.9465 35.7985 93.9762 35.7138C94.0058 35.629 94.053 35.5514 94.1147 35.4861C94.1786 35.4219 94.2557 35.3724 94.3406 35.3409C94.4256 35.3095 94.5164 35.2969 94.6067 35.304C94.6969 35.2976 94.7875 35.3104 94.8724 35.3418C94.9573 35.3732 95.0344 35.4224 95.0987 35.4861C95.161 35.5512 95.2089 35.6286 95.2394 35.7133C95.2699 35.7981 95.2823 35.8883 95.2759 35.9781V38.9008C95.3 39.2474 95.2536 39.5953 95.1394 39.9234C95.0253 40.2516 94.8457 40.5531 94.6116 40.8099C94.0578 41.2356 93.3789 41.4664 92.6804 41.4664C91.9819 41.4664 91.303 41.2356 90.7492 40.8099H90.7344Z" fill="#283064"/>
<path d="M101.667 40.9083C101.668 40.9842 101.651 41.0593 101.618 41.1276C101.584 41.1959 101.536 41.2556 101.475 41.3019C101.368 41.3864 101.239 41.4383 101.102 41.4514C100.966 41.4645 100.829 41.4382 100.708 41.3757C100.603 41.3217 100.514 41.2401 100.452 41.1395L99.3253 39.4617C99.2468 39.3335 99.1409 39.2243 99.0153 39.1419C98.8907 39.0725 98.7495 39.0384 98.6069 39.0435H97.9131V40.7705C97.9185 40.8598 97.9061 40.9494 97.8765 41.0338C97.847 41.1183 97.8009 41.1961 97.7409 41.2625C97.6763 41.3257 97.599 41.3745 97.5143 41.4059C97.4295 41.4372 97.3391 41.4504 97.2489 41.4446C97.1595 41.4513 97.0698 41.4385 96.9858 41.4072C96.9018 41.3759 96.8257 41.3267 96.7625 41.2631C96.6994 41.1995 96.6508 41.123 96.6201 41.0388C96.5894 40.9546 96.5773 40.8647 96.5847 40.7754V35.988C96.5754 35.9041 96.585 35.8192 96.6129 35.7395C96.6407 35.6598 96.686 35.5874 96.7454 35.5275C96.8048 35.4676 96.8769 35.4217 96.9564 35.3933C97.0358 35.3648 97.1207 35.3545 97.2046 35.3631H99.3548C99.9269 35.3199 100.495 35.486 100.954 35.8305C101.14 35.9989 101.286 36.2071 101.381 36.4397C101.475 36.6723 101.516 36.9232 101.5 37.1738C101.515 37.5927 101.378 38.0029 101.116 38.33C100.834 38.6506 100.45 38.8643 100.029 38.9352C100.195 38.9675 100.351 39.0364 100.486 39.137C100.639 39.2592 100.77 39.4054 100.875 39.5699L101.525 40.554C101.606 40.6553 101.656 40.7786 101.667 40.9083V40.9083ZM99.9993 37.8331C100.089 37.7558 100.158 37.6584 100.203 37.5489C100.247 37.4395 100.265 37.321 100.255 37.2033C100.267 37.0854 100.249 36.9666 100.205 36.8569C100.16 36.7473 100.09 36.65 99.9993 36.5735C99.7518 36.4215 99.4622 36.3525 99.1727 36.3767H97.8984V38.0348H99.1727C99.4628 38.0579 99.7525 37.9871 99.9993 37.8331Z" fill="#283064"/>
<path d="M106.233 41.3068C105.89 41.2215 105.567 41.0675 105.284 40.8541C105.204 40.8064 105.14 40.7372 105.098 40.6545C105.057 40.5718 105.039 40.479 105.048 40.3867C105.044 40.2493 105.089 40.115 105.175 40.0079C105.21 39.9591 105.256 39.9191 105.309 39.8909C105.362 39.8627 105.421 39.8472 105.481 39.8455C105.542 39.8453 105.604 39.8553 105.663 39.875C105.74 39.9039 105.814 39.9401 105.884 39.9833C106.115 40.1294 106.365 40.2436 106.627 40.3228C106.898 40.3943 107.178 40.4291 107.459 40.4261C107.757 40.4456 108.056 40.3808 108.32 40.2391C108.414 40.1855 108.491 40.1072 108.544 40.0127C108.597 39.9182 108.623 39.811 108.62 39.7028C108.617 39.6126 108.589 39.5249 108.54 39.4494C108.49 39.3739 108.421 39.3135 108.339 39.2747C108.028 39.124 107.697 39.0196 107.355 38.9648C106.917 38.8877 106.491 38.7555 106.086 38.5711C105.805 38.4506 105.564 38.2526 105.392 38.0004C105.239 37.7508 105.164 37.4614 105.175 37.1688C105.169 36.8158 105.278 36.4704 105.485 36.1848C105.708 35.8865 106.008 35.6537 106.351 35.5107C106.743 35.3425 107.165 35.2586 107.591 35.2647C108.309 35.2349 109.015 35.4501 109.594 35.8748C109.668 35.9307 109.73 36.001 109.776 36.0815C109.817 36.162 109.838 36.2517 109.835 36.3422C109.837 36.4802 109.79 36.6144 109.702 36.7211C109.667 36.7699 109.622 36.8099 109.569 36.838C109.516 36.8662 109.457 36.8818 109.397 36.8835C109.337 36.8846 109.277 36.8746 109.22 36.8539C109.141 36.8256 109.065 36.7893 108.994 36.7457C108.791 36.6124 108.575 36.5002 108.349 36.4111C108.109 36.3292 107.855 36.2909 107.601 36.298C107.313 36.2836 107.028 36.3537 106.78 36.4997C106.687 36.5584 106.61 36.6398 106.558 36.7362C106.505 36.8327 106.478 36.9409 106.479 37.0508C106.475 37.1748 106.517 37.296 106.597 37.3903C106.705 37.4976 106.837 37.5785 106.981 37.6264C107.232 37.7145 107.488 37.7852 107.749 37.838C108.344 37.9475 108.909 38.1823 109.407 38.5268C109.57 38.6589 109.699 38.8276 109.785 39.0191C109.87 39.2106 109.909 39.4195 109.899 39.629C109.908 39.9815 109.8 40.3272 109.594 40.6131C109.374 40.9048 109.078 41.1296 108.738 41.2625C108.333 41.4233 107.899 41.5019 107.463 41.4938C107.047 41.4842 106.634 41.4214 106.233 41.3068V41.3068Z" fill="#283064"/>
<path d="M112.507 41.2477C112.442 41.1837 112.393 41.1067 112.36 41.0219C112.328 40.937 112.314 40.8463 112.32 40.7557V36.4308H110.937C110.514 36.4308 110.302 36.2487 110.302 35.8797C110.302 35.5107 110.514 35.3434 110.937 35.3434H115.041C115.464 35.3434 115.675 35.5205 115.675 35.8797C115.675 36.2389 115.464 36.4308 115.041 36.4308H113.653V40.7557C113.659 40.8455 113.647 40.9356 113.616 41.0203C113.586 41.1051 113.538 41.1825 113.476 41.2477C113.341 41.3688 113.166 41.4357 112.984 41.4357C112.802 41.4357 112.627 41.3688 112.492 41.2477H112.507Z" fill="#283064"/>
<path d="M117.048 40.8099C116.813 40.5525 116.634 40.2502 116.519 39.9211C116.405 39.5921 116.359 39.2433 116.384 38.8959V35.9732C116.378 35.8851 116.391 35.7968 116.422 35.7142C116.453 35.6316 116.502 35.5566 116.564 35.4941C116.627 35.4317 116.702 35.3833 116.784 35.3523C116.867 35.3212 116.955 35.3081 117.043 35.3139C117.134 35.3068 117.224 35.3193 117.309 35.3508C117.394 35.3822 117.471 35.4317 117.535 35.4959C117.598 35.561 117.645 35.6384 117.676 35.7232C117.707 35.8079 117.719 35.8981 117.712 35.988V38.9746C117.685 39.3668 117.802 39.7555 118.042 40.0669C118.301 40.309 118.642 40.4437 118.997 40.4437C119.351 40.4437 119.692 40.309 119.951 40.0669C120.192 39.7577 120.311 39.3707 120.286 38.9795V35.9929C120.279 35.9031 120.292 35.8129 120.322 35.7281C120.353 35.6434 120.401 35.566 120.463 35.5009C120.526 35.4358 120.603 35.3857 120.688 35.3543C120.773 35.3228 120.865 35.3106 120.955 35.3188C121.045 35.3123 121.136 35.3252 121.221 35.3566C121.305 35.388 121.383 35.4372 121.447 35.5009C121.511 35.5648 121.561 35.6419 121.592 35.7268C121.624 35.8118 121.636 35.9026 121.629 35.9929V38.9155C121.654 39.2626 121.607 39.611 121.492 39.9393C121.377 40.2677 121.196 40.5689 120.96 40.8246C120.407 41.2507 119.729 41.4818 119.031 41.4818C118.333 41.4818 117.655 41.2507 117.102 40.8246L117.048 40.8099Z" fill="#283064"/>
<path d="M123.071 41.2232C123.014 41.161 122.97 41.088 122.942 41.0085C122.914 40.9291 122.903 40.8447 122.908 40.7607V35.9831C122.899 35.8987 122.909 35.8134 122.937 35.7333C122.965 35.6532 123.011 35.5805 123.071 35.5205C123.131 35.4605 123.203 35.4147 123.283 35.3866C123.363 35.3585 123.449 35.3488 123.533 35.3582H125.25C125.835 35.3419 126.415 35.465 126.943 35.7174C127.401 35.9444 127.78 36.3046 128.03 36.7506C128.292 37.2492 128.421 37.8067 128.404 38.3694C128.419 38.9314 128.292 39.4882 128.035 39.9882C127.789 40.4365 127.411 40.7988 126.953 41.0264C126.422 41.2792 125.838 41.4023 125.25 41.3856H123.533C123.449 41.3911 123.365 41.3795 123.285 41.3516C123.206 41.3237 123.133 41.28 123.071 41.2232V41.2232ZM127.081 38.3694C127.081 37.0803 126.439 36.4357 125.157 36.4357H124.242V40.308H125.152C126.441 40.308 127.084 39.6618 127.081 38.3694V38.3694Z" fill="#283064"/>
<path d="M133.457 35.3041C133.538 35.305 133.618 35.3219 133.693 35.354C133.767 35.3862 133.834 35.4327 133.89 35.4911C133.95 35.544 133.999 35.6091 134.032 35.682C134.065 35.755 134.082 35.8341 134.082 35.9142C134.08 36.0628 134.022 36.2051 133.92 36.3128L132.04 38.5269V40.7607C132.046 40.8517 132.032 40.9429 131.998 41.0278C131.965 41.1128 131.914 41.1895 131.848 41.2527C131.721 41.3682 131.553 41.4298 131.381 41.4249C131.201 41.4337 131.024 41.3719 130.889 41.2527C130.823 41.1895 130.772 41.1128 130.739 41.0278C130.706 40.9429 130.692 40.8517 130.697 40.7607V38.5269L128.842 36.3029C128.79 36.2506 128.749 36.1884 128.721 36.12C128.693 36.0516 128.679 35.9783 128.68 35.9044C128.687 35.7449 128.754 35.5938 128.866 35.4809C128.979 35.3681 129.13 35.3015 129.29 35.2943C129.376 35.2958 129.461 35.3169 129.538 35.3562C129.614 35.3954 129.681 35.4516 129.733 35.5206L131.366 37.5133L133 35.5206C133.054 35.4517 133.124 35.3964 133.203 35.3588C133.283 35.3213 133.37 35.3026 133.457 35.3041V35.3041Z" fill="#283064"/>
<path d="M138.638 41.0854C138.197 40.8373 137.84 40.4618 137.615 40.0078C137.38 39.4937 137.258 38.9349 137.258 38.3694C137.258 37.8039 137.38 37.2451 137.615 36.7309C137.84 36.2783 138.197 35.9044 138.638 35.6583C139.186 35.3738 139.801 35.2453 140.416 35.287C141.031 35.3286 141.623 35.5388 142.127 35.8945C142.202 35.949 142.264 36.0196 142.309 36.1011C142.345 36.1814 142.362 36.269 142.358 36.357C142.362 36.4952 142.319 36.6306 142.235 36.7408C142.2 36.7892 142.155 36.8287 142.102 36.856C142.049 36.8834 141.99 36.8978 141.93 36.8982C141.86 36.8995 141.79 36.8895 141.723 36.8687C141.652 36.8412 141.584 36.8048 141.522 36.7605C141.325 36.6267 141.112 36.5192 140.887 36.4406C140.688 36.3722 140.478 36.3389 140.267 36.3422C140.036 36.3235 139.805 36.3581 139.59 36.4434C139.375 36.5288 139.182 36.6625 139.027 36.8343C138.721 37.2793 138.575 37.8156 138.614 38.3546C138.614 39.7093 139.165 40.3867 140.267 40.3867C140.47 40.3893 140.671 40.356 140.862 40.2883C141.092 40.2035 141.313 40.0963 141.522 39.9685C141.59 39.9255 141.663 39.8893 141.738 39.8602C141.8 39.8393 141.865 39.8293 141.93 39.8307C141.99 39.8311 142.049 39.8455 142.102 39.8729C142.155 39.9003 142.2 39.9398 142.235 39.9882C142.319 40.0983 142.362 40.2337 142.358 40.372C142.362 40.462 142.344 40.5517 142.304 40.6327C142.261 40.7125 142.2 40.7815 142.127 40.8345C141.623 41.1901 141.031 41.4003 140.416 41.442C139.801 41.4836 139.186 41.3552 138.638 41.0706V41.0854Z" fill="#283064"/>
<path d="M148.996 40.8492C148.998 40.9268 148.982 41.0038 148.948 41.074C148.915 41.1441 148.865 41.2053 148.804 41.2527C148.683 41.3626 148.524 41.4224 148.361 41.42C148.253 41.4202 148.147 41.3894 148.056 41.3314C147.955 41.2673 147.877 41.1724 147.835 41.0608L147.377 40.0521H144.479L144.026 41.0608C143.986 41.1686 143.913 41.2612 143.818 41.3256C143.723 41.39 143.61 41.423 143.495 41.42C143.332 41.4205 143.174 41.3609 143.052 41.2527C142.99 41.2058 142.939 41.1448 142.905 41.0747C142.871 41.0045 142.854 40.9272 142.855 40.8492C142.859 40.7536 142.883 40.6599 142.924 40.5737L145.232 35.7272C145.291 35.5946 145.391 35.4843 145.517 35.4123C145.638 35.3422 145.776 35.3049 145.916 35.304C146.061 35.3043 146.204 35.3433 146.329 35.4172C146.453 35.4911 146.554 35.5986 146.619 35.7272L148.927 40.5737C148.968 40.6599 148.992 40.7536 148.996 40.8492V40.8492ZM144.932 39.0434H146.924L145.94 36.8195L144.932 39.0434Z" fill="#283064"/>
<path d="M150.088 41.2527C150.024 41.1881 149.975 41.111 149.943 41.0264C149.911 40.9417 149.896 40.8512 149.901 40.7607V35.9733C149.892 35.8889 149.901 35.8035 149.929 35.7235C149.958 35.6434 150.003 35.5706 150.063 35.5106C150.123 35.4506 150.196 35.4049 150.276 35.3768C150.356 35.3487 150.442 35.339 150.526 35.3484H153.478C153.652 35.3323 153.826 35.3775 153.97 35.4763C154.025 35.5276 154.067 35.5905 154.093 35.6604C154.119 35.7303 154.13 35.8053 154.123 35.8798C154.128 35.9526 154.117 36.0257 154.091 36.0938C154.064 36.1619 154.023 36.2232 153.97 36.2734C153.826 36.3722 153.652 36.4174 153.478 36.4013H151.23V37.7839H153.306C153.48 37.767 153.654 37.8123 153.798 37.9119C153.853 37.9626 153.896 38.0254 153.923 38.0953C153.951 38.1653 153.962 38.2405 153.955 38.3153C153.96 38.3885 153.948 38.4618 153.921 38.53C153.894 38.5981 153.852 38.6592 153.798 38.7089C153.654 38.8085 153.48 38.8538 153.306 38.8369H151.23V40.7607C151.235 40.8505 151.222 40.9404 151.192 41.025C151.161 41.1097 151.114 41.1871 151.052 41.2527C150.922 41.3717 150.752 41.4376 150.575 41.4376C150.399 41.4376 150.228 41.3717 150.098 41.2527H150.088Z" fill="#283064"/>
<path d="M155.126 41.2232C155.07 41.161 155.026 41.088 154.998 41.0085C154.97 40.929 154.959 40.8447 154.964 40.7607V35.9831C154.955 35.8987 154.964 35.8134 154.992 35.7333C155.021 35.6532 155.066 35.5805 155.126 35.5205C155.186 35.4605 155.259 35.4147 155.339 35.3866C155.419 35.3585 155.505 35.3488 155.589 35.3582H158.61C159.033 35.3582 159.245 35.5304 159.245 35.8502C159.245 36.17 159.033 36.3718 158.61 36.3718H156.258V37.7839H158.438C158.861 37.7839 159.072 37.9561 159.072 38.3055C159.072 38.6548 158.861 38.7975 158.438 38.7975H156.258V40.3129H158.61C159.033 40.3129 159.245 40.4851 159.245 40.8345C159.245 41.1838 159.033 41.3265 158.61 41.3265H155.584C155.424 41.3528 155.26 41.3158 155.126 41.2232V41.2232ZM157.188 34.8858C157.11 34.8876 157.034 34.8595 156.976 34.8071C156.949 34.7835 156.926 34.7541 156.911 34.721C156.896 34.6878 156.888 34.6517 156.888 34.6152C156.896 34.5282 156.936 34.4472 157.001 34.3889L157.734 33.6656C157.787 33.6061 157.851 33.558 157.923 33.5242C157.995 33.4904 158.073 33.4715 158.152 33.4688C158.214 33.4679 158.275 33.4797 158.332 33.5034C158.388 33.5271 158.439 33.5622 158.482 33.6066C158.569 33.6945 158.62 33.8123 158.625 33.9362C158.624 34.0273 158.593 34.1156 158.536 34.1872C158.47 34.2754 158.382 34.3449 158.28 34.3889L157.35 34.8514C157.3 34.8765 157.244 34.8884 157.188 34.8858V34.8858Z" fill="#283064"/>
</svg>
