<svg width="127" height="79" viewBox="0 0 127 79" fill="none" xmlns="http://www.w3.org/2000/svg">
<g clip-path="url(#clip0_399_1322)">
<path d="M2.58955 78.43H125.28C125.545 78.43 125.799 78.3246 125.987 78.1371C126.174 77.9495 126.28 77.6952 126.28 77.43V1.61995C126.278 1.44213 126.229 1.2679 126.138 1.11522C126.047 0.962538 125.917 0.836934 125.761 0.751351C125.605 0.665768 125.429 0.623302 125.251 0.628329C125.074 0.633357 124.9 0.685696 124.75 0.779952L64.1695 39.1199L2.07955 76.57C1.89113 76.6818 1.74465 76.8523 1.66261 77.0555C1.58056 77.2586 1.56751 77.4831 1.62544 77.6944C1.68337 77.9057 1.80909 78.0921 1.98328 78.225C2.15746 78.3579 2.37046 78.4299 2.58955 78.43Z" fill="#8233E0"/>
<path d="M62.4111 0.650042C62.5049 0.536802 62.6226 0.445652 62.7557 0.383088C62.8887 0.320524 63.034 0.288086 63.1811 0.288086C63.3281 0.288086 63.4734 0.320524 63.6065 0.383088C63.7396 0.445652 63.8572 0.536802 63.9511 0.650042L126.061 76.8C126.181 76.9477 126.256 77.1264 126.278 77.3152C126.3 77.504 126.267 77.6952 126.184 77.8663C126.102 78.0373 125.972 78.1812 125.81 78.2811C125.648 78.3809 125.461 78.4326 125.271 78.43H1.10107C0.911832 78.4307 0.726298 78.3776 0.56602 78.277C0.405742 78.1764 0.2773 78.0324 0.195616 77.8617C0.113932 77.691 0.0823595 77.5006 0.104566 77.3127C0.126772 77.1248 0.201847 76.947 0.321066 76.8L62.4111 0.650042Z" fill="#5E3CF5"/>
<path d="M125.27 78.4301H1.00001C0.734795 78.4301 0.480441 78.3247 0.292905 78.1372C0.105369 77.9496 1.17314e-05 77.6953 1.17314e-05 77.4301V1.62008C-0.000864541 1.43915 0.0473642 1.26137 0.139559 1.10568C0.231753 0.950002 0.364459 0.82225 0.523534 0.736041C0.682609 0.649833 0.862094 0.608399 1.04286 0.616154C1.22363 0.623908 1.3989 0.680562 1.55001 0.780078L62.91 39.1201L125.79 76.5701C125.979 76.6823 126.126 76.8538 126.208 77.0579C126.29 77.2621 126.302 77.4875 126.243 77.6994C126.184 77.9112 126.056 78.0976 125.88 78.2297C125.704 78.3618 125.49 78.4322 125.27 78.4301Z" fill="#2B76F6"/>
</g>
<defs>
<clipPath id="clip0_399_1322">
<rect width="126.28" height="78.43" fill="white"/>
</clipPath>
</defs>
</svg>
