<?xml version="1.0" encoding="utf-8"?>
<!-- Generator: Adobe Illustrator 25.4.0, SVG Export Plug-In . SVG Version: 6.00 Build 0)  -->
<svg version="1.1" id="Layer_1" xmlns="http://www.w3.org/2000/svg" xmlns:xlink="http://www.w3.org/1999/xlink" x="0px" y="0px"
	 viewBox="0 0 216.5 49" style="enable-background:new 0 0 216.5 49;" xml:space="preserve">
<style type="text/css">
	.st0{fill:#CE1230;}
</style>
<g transform="translate(-0.036)">
	<path class="st0" d="M66.9,32.4c-0.1-0.1-0.2-0.3-0.2-0.5V14.3h-5.9c-0.2,0-0.4-0.1-0.5-0.2c-0.1-0.2-0.2-0.4-0.2-0.6v-2.4
		c0-0.2,0.1-0.4,0.2-0.6c0.2-0.1,0.4-0.2,0.6-0.2h16.3c0.2,0,0.4,0.1,0.6,0.2c0.1,0.2,0.2,0.4,0.2,0.6v2.4c0,0.2-0.1,0.4-0.2,0.6
		c-0.2,0.1-0.4,0.2-0.6,0.2h-5.9v17.6c0,0.2-0.1,0.4-0.2,0.5c-0.2,0.1-0.4,0.2-0.6,0.2h-3C67.2,32.6,67.1,32.6,66.9,32.4z"/>
	<path class="st0" d="M80.7,32.4c-0.1-0.1-0.2-0.3-0.2-0.5V11.1c0-0.2,0.1-0.4,0.2-0.6c0.2-0.1,0.4-0.2,0.6-0.2h2.9
		c0.2,0,0.4,0.1,0.6,0.2c0.1,0.2,0.2,0.4,0.2,0.6v8.2h9.3v-8.2c0-0.2,0.1-0.4,0.2-0.6c0.1-0.1,0.3-0.2,0.5-0.2h3
		c0.2,0,0.4,0.1,0.6,0.2c0.1,0.2,0.2,0.4,0.2,0.6v20.8c0,0.2-0.1,0.4-0.2,0.5c-0.2,0.1-0.4,0.2-0.6,0.2h-3c-0.4,0-0.7-0.3-0.7-0.7
		c0,0,0,0,0,0v-8.5H85v8.5c0,0.2-0.1,0.4-0.2,0.5c-0.2,0.1-0.4,0.2-0.6,0.2h-2.9C81,32.6,80.8,32.6,80.7,32.4z"/>
	<path class="st0" d="M101.4,32.4c-0.1-0.1-0.2-0.3-0.2-0.5V17.2c0-0.2,0.1-0.4,0.2-0.6c0.1-0.1,0.3-0.2,0.5-0.2h3.1
		c0.2,0,0.4,0.1,0.6,0.2c0.1,0.2,0.2,0.4,0.2,0.6v14.7c0,0.2-0.1,0.4-0.2,0.5c-0.1,0.2-0.3,0.2-0.6,0.2h-3
		C101.7,32.6,101.6,32.6,101.4,32.4z"/>
	<path class="st0" d="M108.4,32.4c-0.1-0.1-0.2-0.3-0.2-0.5V11.1c0-0.2,0.1-0.4,0.2-0.6c0.2-0.1,0.4-0.2,0.6-0.2h2.5
		c0.4,0,0.7,0.2,0.9,0.5l9.1,14.2V11.1c0-0.2,0.1-0.4,0.2-0.6c0.2-0.1,0.4-0.2,0.6-0.2h2.7c0.2,0,0.4,0.1,0.6,0.2
		c0.1,0.2,0.2,0.4,0.2,0.6v20.7c0,0.2-0.1,0.4-0.2,0.6c-0.1,0.1-0.3,0.2-0.5,0.2h-2.5c-0.4,0-0.8-0.2-1-0.5l-9.1-13.8v13.6
		c0,0.2-0.1,0.4-0.2,0.5c-0.2,0.1-0.4,0.2-0.6,0.2H109C108.8,32.6,108.6,32.6,108.4,32.4z"/>
	<path d="M129.8,32.4c-0.1-0.1-0.2-0.3-0.2-0.5V11.1c0-0.2,0.1-0.4,0.2-0.6c0.2-0.1,0.4-0.2,0.6-0.2h2.9c0.2,0,0.4,0.1,0.6,0.2
		c0.1,0.2,0.2,0.4,0.2,0.6v7.5l7.1-7.7c0.3-0.4,0.7-0.6,1.2-0.6h3.3c0.2,0,0.3,0.1,0.5,0.2c0.1,0.1,0.2,0.3,0.2,0.5
		c0,0.2-0.1,0.3-0.2,0.4l-8.7,9.6l9.3,10.6c0.1,0.1,0.1,0.3,0.1,0.4c0,0.4-0.3,0.7-0.6,0.7H143c-0.4,0-0.7-0.1-1-0.3l-0.3-0.3
		l-7.6-8.4v8.2c0,0.2-0.1,0.4-0.2,0.5c-0.2,0.1-0.4,0.2-0.6,0.2h-2.9C130.2,32.6,130,32.6,129.8,32.4z"/>
	<path class="st0" d="M128.4,32.4c-0.1-0.1-0.2-0.3-0.2-0.5V11.1c0-0.2,0.1-0.4,0.2-0.6c0.2-0.1,0.4-0.2,0.6-0.2h2.9
		c0.2,0,0.4,0.1,0.6,0.2c0.1,0.2,0.2,0.4,0.2,0.6v7.5l7.1-7.7c0.3-0.4,0.7-0.6,1.2-0.6h3.3c0.2,0,0.3,0.1,0.5,0.2
		c0.1,0.1,0.2,0.3,0.2,0.5c0,0.2-0.1,0.3-0.2,0.4l-8.7,9.6l9.3,10.6c0.1,0.1,0.1,0.3,0.1,0.4c0,0.4-0.3,0.7-0.6,0.7h-3.3
		c-0.4,0-0.7-0.1-1-0.3l-0.3-0.3l-7.6-8.4v8.2c0,0.2-0.1,0.4-0.2,0.5c-0.2,0.1-0.4,0.2-0.6,0.2H129
		C128.8,32.6,128.6,32.6,128.4,32.4z"/>
	<path class="st0" d="M150.2,32.1c-1.1-0.5-2.2-1.2-2.9-2.2c-0.6-0.8-1-1.8-1-2.8c0-0.4,0.3-0.7,0.7-0.7c0,0,0,0,0,0h2.9
		c0.4,0,0.8,0.2,1,0.6c0.5,1.5,1.9,2.3,4.2,2.3c1.1,0.1,2.1-0.2,3-0.9c0.8-0.6,1.2-1.6,1.1-2.6c0.1-0.9-0.3-1.8-1-2.4
		c-0.9-0.5-1.9-0.8-2.9-0.7H152c-0.4,0-0.7-0.3-0.7-0.7c0,0,0,0,0,0v-1.4c0-0.4,0.1-0.7,0.4-1l5.7-5.5h-9.1c-0.2,0-0.4-0.1-0.6-0.2
		c-0.1-0.1-0.2-0.3-0.2-0.5v-2.1c0-0.2,0.1-0.4,0.2-0.6c0.2-0.1,0.4-0.2,0.6-0.2H162c0.2,0,0.4,0.1,0.6,0.2c0.1,0.2,0.2,0.4,0.2,0.6
		v1.9c0,0.4-0.1,0.7-0.4,0.9l-5.5,5.6h0.4c1.8,0.1,3.5,0.7,4.9,1.8c1.2,1.2,1.9,2.9,1.8,4.6c0,1.3-0.4,2.6-1.1,3.7
		c-0.8,1-1.9,1.9-3.1,2.4c-1.4,0.6-3,0.9-4.5,0.8C153.6,33.1,151.8,32.8,150.2,32.1z"/>
	<path class="st0" d="M170,31.9c-1.3-0.6-2.4-1.6-3.1-2.8c-0.7-1.2-1.1-2.6-1.1-4c0-1.9,0.8-3.9,2.5-6.2l5.8-8
		c0.2-0.2,0.3-0.4,0.5-0.5c0.2-0.1,0.4-0.2,0.6-0.2h3c0.2,0,0.3,0.1,0.5,0.2c0.1,0.1,0.2,0.3,0.2,0.5c0,0.1,0,0.3-0.1,0.4l-4.5,6.2
		c0.4-0.1,0.9-0.1,1.3-0.1c1.4,0,2.7,0.4,3.9,1c1.2,0.7,2.2,1.6,2.9,2.7c0.7,1.1,1.1,2.5,1.1,3.8c0,1.4-0.4,2.8-1.1,4
		c-0.7,1.3-1.8,2.3-3.1,2.9c-1.4,0.7-3,1.1-4.6,1.1C173.1,33,171.4,32.7,170,31.9z M177.6,28.2c0.8-0.8,1.3-1.9,1.2-3
		c0.1-1.1-0.4-2.2-1.2-3c-1.7-1.5-4.3-1.5-6,0c-0.8,0.8-1.3,1.9-1.2,3c-0.1,1.1,0.4,2.2,1.2,3C173.3,29.7,175.9,29.7,177.6,28.2z"/>
	<path class="st0" d="M187.7,30.6c-1.5-1.7-2.3-3.9-2.3-6.2v-5.9c0-2.2,0.8-4.4,2.3-6.1c1.4-1.6,3.5-2.4,6.3-2.4s4.9,0.8,6.3,2.4
		c1.5,1.7,2.3,3.9,2.3,6.1c0,1.2,0.1,2.2,0.1,3s0,1.8-0.1,2.9c0,2.3-0.8,4.5-2.3,6.2c-1.4,1.6-3.5,2.4-6.4,2.4
		C191.6,33.2,189.3,32.3,187.7,30.6z M197,27.9c0.7-1.1,1.1-2.4,1.1-3.7v-5.6c0.1-1.3-0.3-2.6-1.1-3.6c-0.7-0.9-1.8-1.4-3-1.3
		c-1.1,0-2.2,0.4-3,1.3c-0.7,1.1-1.1,2.3-1.1,3.6v5.6c-0.1,1.3,0.3,2.6,1.1,3.7c0.7,0.9,1.8,1.4,3,1.3
		C195.2,29.3,196.3,28.8,197,27.9z"/>
	<path class="st0" d="M101.4,13.8c-0.1-0.1-0.2-0.3-0.2-0.5v-2.1c0-0.2,0.1-0.4,0.2-0.6c0.1-0.1,0.3-0.2,0.5-0.2h3.1
		c0.2,0,0.4,0.1,0.6,0.2c0.1,0.2,0.2,0.4,0.2,0.6v2.1c0,0.2-0.1,0.4-0.2,0.5c-0.2,0.1-0.4,0.2-0.6,0.2h-3
		C101.8,14,101.6,13.9,101.4,13.8z"/>
	<path d="M78.5,44.6c-0.1-0.1-0.1-0.1-0.1-0.2V38c0-0.1,0-0.1,0.1-0.2c0.1-0.1,0.1-0.1,0.2-0.1h2.2c0.8-0.1,1.5,0.2,2.1,0.7
		c0.5,0.6,0.7,1.3,0.7,2V42c0,0.5-0.1,1-0.3,1.5c-0.2,0.4-0.5,0.7-0.9,0.9c-0.5,0.2-1.1,0.3-1.6,0.3h-2.2
		C78.6,44.7,78.6,44.7,78.5,44.6z M80.9,43.9c0.4,0,0.7-0.1,1.1-0.2c0.3-0.1,0.5-0.3,0.6-0.6c0.1-0.4,0.2-0.7,0.2-1.1v-1.4
		c0-0.5-0.2-1-0.5-1.4c-0.4-0.4-1-0.5-1.5-0.5h-1.4v5.2H80.9z"/>
	<path d="M85.3,44.2c-0.4-0.5-0.7-1.1-0.7-1.7v-0.6c0-0.6,0.3-1.2,0.7-1.7c0.4-0.4,1-0.6,1.6-0.6c0.6,0,1.3,0.2,1.7,0.7
		c0.4,0.5,0.6,1.1,0.6,1.8v0.2c0,0.1,0,0.1-0.1,0.2c-0.1,0.1-0.1,0.1-0.2,0.1h-3.4v0.1c0,0.4,0.1,0.8,0.4,1.1
		c0.5,0.4,1.2,0.5,1.7,0.2c0.2-0.1,0.3-0.2,0.4-0.4l0.1-0.1h0.8l0.1,0.1c0,0.2-0.1,0.4-0.3,0.5c-0.2,0.2-0.4,0.4-0.7,0.5
		c-0.4,0.1-0.7,0.2-1.1,0.2C86.3,44.8,85.7,44.6,85.3,44.2z M88.2,41.8L88.2,41.8c0.1-0.4-0.1-0.8-0.4-1.1c-0.6-0.5-1.4-0.5-2,0
		c-0.2,0.3-0.4,0.7-0.4,1.1H88.2z"/>
	<path d="M90.6,44.6c-0.1-0.1-0.1-0.1-0.1-0.2v-4.1h-0.8c-0.1,0-0.1,0-0.2-0.1c-0.1-0.1-0.1-0.1-0.1-0.2v-0.3c0-0.1,0-0.1,0.1-0.2
		c0.1-0.1,0.1-0.1,0.2-0.1h0.8v-0.5c0-0.4,0.1-0.9,0.4-1.2c0.4-0.3,0.8-0.5,1.3-0.4h0.6c0.1,0,0.1,0,0.2,0.1
		c0.1,0.1,0.1,0.1,0.1,0.2V38c0,0.1,0,0.1-0.1,0.2c-0.1,0.1-0.1,0.1-0.2,0.1h-0.6c-0.2,0-0.4,0.1-0.6,0.2c-0.1,0.2-0.2,0.5-0.2,0.7
		v0.4h1.3c0.1,0,0.1,0,0.2,0.1c0.1,0.1,0.1,0.1,0.1,0.2v0.3c0,0.1,0,0.1-0.1,0.2c-0.1,0.1-0.1,0.1-0.2,0.1h-1.3v4.1
		c0,0.1,0,0.1-0.1,0.2c-0.1,0.1-0.1,0.1-0.2,0.1h-0.4C90.7,44.7,90.6,44.7,90.6,44.6z"/>
	<path d="M93.8,38.6c-0.1-0.1-0.1-0.1-0.1-0.2v-0.5c0-0.1,0-0.1,0.1-0.2c0.1-0.1,0.1-0.1,0.2-0.1h0.6c0.1,0,0.1,0,0.2,0.1
		c0.1,0.1,0.1,0.1,0.1,0.2v0.5c0,0.1,0,0.1-0.1,0.2c-0.1,0.1-0.1,0.1-0.2,0.1H94C93.9,38.7,93.9,38.7,93.8,38.6z M93.9,44.6
		c-0.1-0.1-0.1-0.1-0.1-0.2v-4.6c0-0.1,0-0.1,0.1-0.2c0.1-0.1,0.1-0.1,0.2-0.1h0.4c0.1,0,0.1,0,0.2,0.1c0.1,0.1,0.1,0.1,0.1,0.2v4.6
		c0,0.1,0,0.1-0.1,0.2c-0.1,0.1-0.1,0.1-0.2,0.1L93.9,44.6C93.9,44.7,93.9,44.7,93.9,44.6z"/>
	<path d="M96,44.6c-0.1-0.1-0.1-0.1-0.1-0.2v-4.6c0-0.1,0-0.1,0.1-0.2c0.1-0.1,0.1-0.1,0.2-0.1h0.4c0.1,0,0.1,0,0.2,0.1
		c0.1,0.1,0.1,0.1,0.1,0.2v0.4c0.2-0.2,0.4-0.4,0.7-0.6c0.3-0.2,0.7-0.2,1-0.2c0.5,0,1.1,0.2,1.4,0.6c0.3,0.5,0.5,1,0.5,1.6v2.8
		c0,0.1,0,0.1-0.1,0.2c-0.1,0.1-0.1,0.1-0.2,0.1h-0.4c-0.1,0-0.1,0-0.2-0.1c-0.1-0.1-0.1-0.1-0.1-0.2v-2.7c0-0.4-0.1-0.8-0.3-1.1
		c-0.2-0.3-0.6-0.4-1-0.4c-0.4,0-0.7,0.1-1,0.4c-0.3,0.3-0.4,0.7-0.4,1.1v2.7c0,0.1,0,0.1-0.1,0.2c-0.1,0.1-0.1,0.1-0.2,0.1h-0.4
		L96,44.6z"/>
	<path d="M101.6,38.6c-0.1-0.1-0.1-0.1-0.1-0.2v-0.5c0-0.1,0-0.1,0.1-0.2c0.1-0.1,0.1-0.1,0.2-0.1h0.6c0.1,0,0.1,0,0.2,0.1
		c0.1,0.1,0.1,0.1,0.1,0.2v0.5c0,0.1,0,0.1-0.1,0.2c-0.1,0.1-0.1,0.1-0.2,0.1h-0.6C101.7,38.7,101.7,38.6,101.6,38.6z M101.7,44.6
		c-0.1-0.1-0.1-0.1-0.1-0.2v-4.6c0-0.1,0-0.1,0.1-0.2c0.1-0.1,0.1-0.1,0.2-0.1h0.4c0.1,0,0.1,0,0.2,0.1c0.1,0.1,0.1,0.1,0.1,0.2v4.6
		c0,0.1,0,0.1-0.1,0.2c-0.1,0.1-0.1,0.1-0.2,0.1h-0.4C101.8,44.7,101.7,44.7,101.7,44.6z"/>
	<path d="M103.8,44.6c-0.1-0.1-0.1-0.1-0.1-0.2v-4.6c0-0.1,0-0.1,0.1-0.2c0.1-0.1,0.1-0.1,0.2-0.1h0.4c0.1,0,0.1,0,0.2,0.1
		c0.1,0.1,0.1,0.1,0.1,0.2v0.4c0.2-0.2,0.4-0.4,0.7-0.6c0.3-0.2,0.7-0.2,1-0.2c0.6,0,1.1,0.2,1.5,0.6c0.3,0.5,0.5,1,0.5,1.6v2.8
		c0,0.1,0,0.1-0.1,0.2c-0.1,0.1-0.1,0.1-0.2,0.1h-0.4c-0.1,0-0.1,0-0.2-0.1c-0.1-0.1-0.1-0.1-0.1-0.2v-2.7c0-0.4-0.1-0.8-0.3-1.1
		c-0.2-0.3-0.6-0.4-1-0.4c-0.4,0-0.7,0.1-1,0.4c-0.3,0.3-0.4,0.7-0.4,1.1v2.7c0,0.1,0,0.1-0.1,0.2c-0.1,0.1-0.1,0.1-0.2,0.1H104
		C103.9,44.7,103.9,44.7,103.8,44.6z"/>
	<path d="M110.2,46.5c-0.3-0.1-0.5-0.4-0.7-0.6c-0.1-0.2-0.2-0.4-0.2-0.6c0-0.1,0-0.1,0.1-0.2c0.1-0.1,0.1-0.1,0.2-0.1h0.5
		c0.1,0.1,0.1,0.1,0.1,0.2c0.2,0.5,0.7,0.8,1.2,0.8c0.4,0,0.8-0.1,1.1-0.3c0.3-0.3,0.4-0.7,0.4-1.1V44c-0.4,0.5-1,0.7-1.6,0.7
		c-0.6,0.1-1.2-0.2-1.5-0.7c-0.3-0.5-0.5-1.1-0.5-1.7v-0.6c0-0.6,0.2-1.2,0.5-1.7c0.4-0.4,0.9-0.7,1.5-0.7c0.6,0,1.2,0.2,1.6,0.7
		v-0.4c0-0.1,0-0.1,0.1-0.2c0.1-0.1,0.1-0.1,0.2-0.1h0.4c0.1,0,0.1,0,0.2,0.1c0.1,0.1,0.1,0.1,0.1,0.2v4.7c0,1.5-0.8,2.2-2.3,2.2
		C111.2,46.8,110.6,46.8,110.2,46.5z M112.5,43.5c0.2-0.3,0.4-0.7,0.4-1.1v-0.6c0-0.4-0.1-0.8-0.4-1.1c-0.2-0.3-0.6-0.4-1-0.4
		c-0.4-0.1-0.8,0.1-1,0.4c-0.2,0.3-0.3,0.7-0.3,1.1v0.6c0,0.4,0.1,0.8,0.3,1.1c0.2,0.3,0.6,0.5,1,0.4
		C111.9,44,112.3,43.8,112.5,43.5z"/>
	<path d="M117.7,46.5L117.7,46.5l-0.1-0.3l0.8-1.8l-1.9-4.4c0-0.1-0.1-0.1-0.1-0.2s0-0.1,0.1-0.1l0.1-0.1h0.4c0.1,0,0.2,0.1,0.2,0.2
		l1.5,3.6l1.5-3.6c0.1-0.1,0.1-0.2,0.2-0.2h0.4c0.1,0,0.1,0,0.1,0.1c0,0.1,0,0.1,0.1,0.1V40l-2.8,6.4c0,0.1,0,0.1-0.1,0.1
		C118.1,46.5,117.7,46.5,117.7,46.5z"/>
	<path d="M122.4,44.2c-0.4-0.4-0.6-1-0.6-1.6v-0.8c0-1.2,1-2.2,2.2-2.2c1.2,0,2.2,1,2.2,2.2v0.8c0,1.3-1.1,2.2-2.3,2.2
		C123.3,44.8,122.8,44.6,122.4,44.2z M125,43.6c0.3-0.3,0.4-0.7,0.4-1.1v-0.8c0-0.4-0.1-0.8-0.4-1.1c-0.3-0.3-0.6-0.4-1-0.4
		c-0.4,0-0.7,0.1-1,0.4c-0.3,0.3-0.4,0.7-0.4,1.1v0.8c0,0.4,0.1,0.8,0.4,1.1C123.6,44.1,124.4,44.1,125,43.6z"/>
	<path d="M127.8,44.2c-0.3-0.5-0.5-1-0.5-1.6v-2.7c0-0.1,0-0.1,0.1-0.2c0.1-0.1,0.1-0.1,0.2-0.1h0.4c0.1,0,0.1,0,0.2,0.1
		c0.1,0.1,0.1,0.1,0.1,0.2v2.7c0,1,0.4,1.5,1.3,1.5c0.4,0,0.7-0.1,1-0.4c0.3-0.3,0.4-0.7,0.4-1.1v-2.7c0-0.1,0-0.1,0.1-0.2
		c0.1-0.1,0.1-0.1,0.2-0.1h0.4c0.1,0,0.1,0,0.2,0.1c0.1,0.1,0.1,0.1,0.1,0.2v4.6c0,0.1,0,0.1-0.1,0.2c-0.1,0.1-0.1,0.1-0.2,0.1h-0.4
		c-0.1,0-0.1,0-0.2-0.1c-0.1-0.1-0.1-0.1-0.1-0.2V44c-0.2,0.3-0.4,0.5-0.7,0.6c-0.3,0.1-0.7,0.2-1,0.2
		C128.7,44.9,128.2,44.6,127.8,44.2z"/>
	<path d="M133,44.6c-0.1-0.1-0.1-0.1-0.1-0.2v-4.6c0-0.1,0-0.1,0.1-0.2c0.1-0.1,0.1-0.1,0.2-0.1h0.4c0.1,0,0.1,0,0.2,0.1
		c0.1,0.1,0.1,0.1,0.1,0.2v0.4c0.3-0.5,0.8-0.7,1.4-0.7h0.4c0.1,0,0.1,0,0.2,0.1c0.1,0.1,0.1,0.1,0.1,0.2v0.4c0,0.1,0,0.1-0.1,0.2
		c-0.1,0.1-0.1,0.1-0.2,0.1H135c-0.3,0-0.6,0.1-0.8,0.3c-0.2,0.2-0.3,0.5-0.3,0.8v2.9c0,0.1,0,0.1-0.1,0.2c-0.1,0.1-0.1,0.1-0.2,0.1
		h-0.4L133,44.6z"/>
	<path d="M139.2,44.1c-0.5-0.5-0.8-1.3-0.7-2v-4c0-0.1,0-0.1,0.1-0.2c0.1-0.1,0.1-0.1,0.2-0.1h0.5c0.1,0,0.1,0,0.2,0.1
		c0.1,0.1,0.1,0.1,0.1,0.2v4c-0.1,0.5,0.1,1,0.4,1.4c0.3,0.3,0.8,0.5,1.3,0.5c0.5,0,0.9-0.2,1.3-0.5c0.3-0.4,0.5-0.9,0.4-1.4v-4
		c0-0.1,0-0.1,0.1-0.2c0.1-0.1,0.1-0.1,0.2-0.1h0.5c0.1,0,0.1,0,0.2,0.1c0.1,0.1,0.1,0.1,0.1,0.2v4c0.1,0.7-0.2,1.5-0.7,2
		c-0.5,0.5-1.2,0.7-1.9,0.7C140.7,44.9,139.8,44.6,139.2,44.1z"/>
	<path d="M144.6,44.6l-0.1-0.1v-0.1l2.2-3.1l-2.1-3v-0.1c0-0.1,0-0.1,0.1-0.1l0.1-0.1h0.6c0.1,0,0.2,0.1,0.3,0.2l1.7,2.5l1.7-2.5
		c0.1-0.1,0.1-0.2,0.3-0.2h0.5c0.1,0,0.1,0,0.1,0.1l0.1,0.1v0.1l-2.1,3l2.2,3.1v0.1c0,0.1,0,0.1-0.1,0.1l-0.1,0.1h-0.6
		c-0.1,0-0.2-0.1-0.3-0.2l-1.8-2.6l-1.8,2.6c-0.1,0.1-0.2,0.2-0.3,0.2L144.6,44.6C144.6,44.7,144.6,44.7,144.6,44.6z"/>
	<path d="M152.2,46.5c-0.1-0.1-0.1-0.1-0.1-0.2V46c0-0.1,0-0.1,0.1-0.2c0.1-0.1,0.1-0.1,0.2-0.1h0.1c0.2,0,0.4-0.1,0.6-0.2
		c0.1-0.2,0.2-0.5,0.2-0.7v-5c0-0.1,0-0.1,0.1-0.2c0.1-0.1,0.1-0.1,0.2-0.1h0.4c0.1,0,0.1,0,0.2,0.1c0.1,0.1,0.1,0.1,0.1,0.2v5
		c0,1.1-0.5,1.7-1.6,1.7H152.2z M153.2,38.6c-0.1-0.1-0.1-0.1-0.1-0.2v-0.5c0-0.1,0-0.1,0.1-0.2c0.1-0.1,0.1-0.1,0.2-0.1h0.6
		c0.1,0,0.1,0,0.2,0.1c0.1,0.1,0.1,0.1,0.1,0.2v0.5c0,0.1,0,0.1-0.1,0.2c-0.1,0.1-0.1,0.1-0.2,0.1h-0.6
		C153.3,38.7,153.3,38.6,153.2,38.6z"/>
	<path d="M155.8,44.2c-0.4-0.4-0.6-1-0.6-1.6v-0.8c0-1.2,1-2.2,2.2-2.2c1.2,0,2.2,1,2.2,2.2c0,0,0,0,0,0v0.8
		c0.1,1.1-0.8,2.1-1.9,2.2c-0.1,0-0.2,0-0.3,0C156.8,44.8,156.2,44.6,155.8,44.2z M158.5,43.6c0.3-0.3,0.4-0.7,0.4-1.1v-0.8
		c0-0.4-0.1-0.8-0.4-1.1c-0.2-0.3-0.6-0.4-1-0.4c-0.4,0-0.7,0.1-1,0.4c-0.3,0.3-0.4,0.7-0.4,1.1v0.8c0,0.4,0.1,0.8,0.4,1.1
		c0.2,0.3,0.6,0.4,1,0.4C157.9,44,158.2,43.9,158.5,43.6z"/>
	<path d="M161.3,44.2c-0.3-0.5-0.5-1-0.5-1.6v-2.7c0-0.1,0-0.1,0.1-0.2c0.1-0.1,0.1-0.1,0.2-0.1h0.4c0.1,0,0.1,0,0.2,0.1
		c0.1,0.1,0.1,0.1,0.1,0.2v2.7c0,1,0.4,1.5,1.3,1.5c0.4,0,0.7-0.1,1-0.4c0.3-0.3,0.4-0.7,0.4-1.1v-2.7c0-0.1,0-0.1,0.1-0.2
		c0.1-0.1,0.1-0.1,0.2-0.1h0.4c0.1,0,0.1,0,0.2,0.1c0.1,0.1,0.1,0.1,0.1,0.2v4.6c0,0.1,0,0.1-0.1,0.2c-0.1,0.1-0.1,0.1-0.2,0.1h-0.4
		c-0.1,0-0.1,0-0.2-0.1c-0.1-0.1-0.1-0.1-0.1-0.2V44c-0.2,0.3-0.4,0.5-0.7,0.6c-0.3,0.1-0.7,0.2-1,0.2
		C162.2,44.9,161.7,44.6,161.3,44.2z"/>
	<path d="M166.5,44.6c-0.1-0.1-0.1-0.1-0.1-0.2v-4.6c0-0.1,0-0.1,0.1-0.2c0.1-0.1,0.1-0.1,0.2-0.1h0.4c0.1,0,0.1,0,0.2,0.1
		c0.1,0.1,0.1,0.1,0.1,0.2v0.4c0.3-0.5,0.8-0.7,1.4-0.7h0.4c0.1,0,0.1,0,0.2,0.1c0.1,0.1,0.1,0.1,0.1,0.2v0.4c0,0.1,0,0.1-0.1,0.2
		c-0.1,0.1-0.1,0.1-0.2,0.1h-0.6c-0.3,0-0.6,0.1-0.8,0.3c-0.2,0.2-0.3,0.5-0.3,0.8v2.9c0,0.1,0,0.1-0.1,0.2
		c-0.1,0.1-0.1,0.1-0.2,0.1h-0.4C166.6,44.7,166.5,44.7,166.5,44.6z"/>
	<path d="M170.2,44.6c-0.1-0.1-0.1-0.1-0.1-0.2v-4.6c0-0.1,0-0.1,0.1-0.2c0.1-0.1,0.1-0.1,0.2-0.1h0.4c0.1,0,0.1,0,0.2,0.1
		c0.1,0.1,0.1,0.1,0.1,0.2v0.4c0.2-0.2,0.4-0.4,0.7-0.6c0.3-0.1,0.7-0.2,1-0.2c0.6,0,1.1,0.2,1.5,0.6c0.3,0.5,0.5,1,0.5,1.6v2.8
		c0,0.1,0,0.1-0.1,0.2c-0.1,0.1-0.1,0.1-0.2,0.1h-0.4c-0.1,0-0.1,0-0.2-0.1c-0.1-0.1-0.1-0.1-0.1-0.2v-2.7c0-0.4-0.1-0.8-0.3-1.1
		c-0.2-0.3-0.6-0.4-1-0.4c-0.4,0-0.7,0.1-1,0.4c-0.3,0.3-0.4,0.7-0.4,1.1v2.7c0,0.1,0,0.1-0.1,0.2c-0.1,0.1-0.1,0.1-0.2,0.1h-0.4
		C170.3,44.7,170.2,44.7,170.2,44.6z"/>
	<path d="M176.2,44.2c-0.4-0.5-0.7-1.1-0.7-1.7v-0.6c0-0.6,0.3-1.2,0.7-1.7c0.4-0.4,1-0.6,1.6-0.6c0.6,0,1.3,0.2,1.7,0.7
		c0.4,0.5,0.6,1.1,0.6,1.8v0.2c0,0.1,0,0.1-0.1,0.2c-0.1,0.1-0.1,0.1-0.2,0.1h-3.4v0.1c0,0.4,0.1,0.8,0.4,1.1
		c0.5,0.4,1.2,0.5,1.7,0.2c0.2-0.1,0.3-0.2,0.4-0.4l0.1-0.1h0.8l0.1,0.1c0,0.2-0.1,0.4-0.3,0.5c-0.2,0.2-0.4,0.4-0.7,0.5
		c-0.4,0.1-0.7,0.2-1.1,0.2C177.2,44.8,176.6,44.6,176.2,44.2z M179.1,41.8L179.1,41.8c0.1-0.4-0.1-0.8-0.4-1.1
		c-0.6-0.5-1.4-0.5-2,0c-0.2,0.3-0.4,0.7-0.4,1.1H179.1L179.1,41.8z"/>
	<path d="M181.6,46.5l-0.1-0.1v-0.2l0.8-1.8l-1.9-4.4c0-0.1-0.1-0.1-0.1-0.2s0-0.1,0.1-0.1l0.1-0.1h0.4c0.1,0,0.2,0.1,0.2,0.2
		l1.5,3.6l1.5-3.6c0.1-0.1,0.1-0.2,0.2-0.2h0.4c0.1,0,0.1,0,0.1,0.1l0.1,0.1V40l-2.8,6.4c0,0.1,0,0.1-0.1,0.1l0,0H181.6L181.6,46.5z
		"/>
	<path class="st0" d="M26.5,12.9c-10.6,0-19.2,6.7-19.2,15c0,6.3,4.9,11.7,12,13.9c-1.5,2.4-5.7,6.7-3.9,7.2h0.4
		c0.5-0.1,2.7-0.8,2.9-0.9c7.1-2.6,13.9-5.2,17.4-7.1c5.8-2.6,9.8-7.5,9.8-13.1C45.8,19.7,37.1,12.9,26.5,12.9z M26.5,38.8
		c-7.8,0-14.1-4.8-14.1-10.8s6.3-10.8,14.1-10.8S40.6,22,40.6,28S34.3,38.8,26.5,38.8z"/>
	<path class="st0" d="M26.5,0C25.4,0,25,1.2,25,4.6c0,2.6,0.2,3.6,0.9,4.2C26.1,8.9,26.3,9,26.5,9c0.2,0,0.4-0.1,0.6-0.2
		C27.8,8.2,28,7.1,28,4.6C28,1.2,27.6,0,26.5,0z"/>
	<path class="st0" d="M9.9,6.4c-0.9,0.7-0.6,1.7,1.2,4c1.3,1.8,2.1,2.4,2.9,2.3c0.2,0,0.4-0.1,0.6-0.2c0.2-0.1,0.3-0.3,0.3-0.5
		c0.3-0.8-0.1-1.7-1.4-3.4C11.7,6.3,10.8,5.7,9.9,6.4z"/>
	<path class="st0" d="M3.9,17.8c-2.2-1.3-3.2-1.5-3.7-0.7c-0.5,0.9,0.1,1.6,2.4,3c1.7,1,2.5,1.3,3.2,0.9c0.2-0.1,0.3-0.2,0.4-0.4
		c0.1-0.1,0.1-0.3,0.1-0.5C6.2,19.4,5.6,18.8,3.9,17.8z"/>
	<path class="st0" d="M42.9,6.3c-0.9-0.6-1.8,0-3.5,2.4c-1.3,1.8-1.6,2.7-1.3,3.5c0.1,0.2,0.2,0.4,0.4,0.5c0.2,0.1,0.4,0.2,0.6,0.2
		c0.8,0,1.6-0.6,2.8-2.4C43.6,8,43.8,6.9,42.9,6.3z"/>
	<path class="st0" d="M48.8,17.8c2.2-1.3,3.2-1.5,3.7-0.7c0.5,0.9-0.1,1.6-2.4,3c-1.7,1-2.5,1.3-3.2,0.9c-0.2-0.1-0.3-0.2-0.4-0.4
		c-0.1-0.1-0.1-0.3-0.1-0.5C46.5,19.4,47.1,18.8,48.8,17.8z"/>
	<path d="M208,12.7L208,12.7l-0.1-0.1V9h-1.3V8.5h3.1V9h-1.2v3.6L208,12.7L208,12.7z"/>
	<path d="M210.4,12.7L210.4,12.7l-0.1-0.1V8.5h0.5v0.1l1.3,2.4l1.3-2.4V8.5h0.5v4.1h-0.5V9.5l-1,2c0,0.1,0,0.1-0.1,0.1l0,0h-0.4
		l-0.1-0.1l-1-2v3.1L210.4,12.7L210.4,12.7z"/>
	<path d="M210.5,16.3c-3.3,0-6-2.7-6-6s2.7-6,6-6s6,2.7,6,6C216.5,13.6,213.8,16.3,210.5,16.3z M210.5,4.8c-3,0-5.5,2.5-5.5,5.5
		s2.5,5.5,5.5,5.5s5.5-2.5,5.5-5.5C216,7.3,213.6,4.8,210.5,4.8C210.5,4.8,210.5,4.8,210.5,4.8z"/>
</g>
</svg>
