<svg width="127" height="79" viewBox="0 0 127 79" fill="none" xmlns="http://www.w3.org/2000/svg">
<path d="M2.58955 78.1419H125.28C125.545 78.1419 125.799 78.0365 125.987 77.849C126.174 77.6614 126.28 77.4071 126.28 77.1419V1.33187C126.278 1.15404 126.229 0.979809 126.138 0.82713C126.047 0.674452 125.917 0.548848 125.761 0.463265C125.605 0.377682 125.429 0.335216 125.251 0.340244C125.074 0.345271 124.9 0.39761 124.75 0.491866L64.1695 38.8319L2.07955 76.2819C1.89113 76.3937 1.74465 76.5642 1.66261 76.7674C1.58056 76.9705 1.56751 77.195 1.62544 77.4063C1.68337 77.6176 1.80909 77.804 1.98328 77.9369C2.15746 78.0698 2.37046 78.1418 2.58955 78.1419Z" fill="#AAC8FB"/>
<path d="M62.4111 0.361956C62.5049 0.248716 62.6226 0.157566 62.7557 0.0950017C62.8887 0.0324378 63.034 0 63.1811 0C63.3281 0 63.4734 0.0324378 63.6065 0.0950017C63.7396 0.157566 63.8572 0.248716 63.9511 0.361956L126.061 76.512C126.181 76.6596 126.256 76.8383 126.278 77.0271C126.3 77.216 126.267 77.4071 126.184 77.5782C126.102 77.7493 125.972 77.8931 125.81 77.993C125.648 78.0928 125.461 78.1445 125.271 78.142H1.10107C0.911832 78.1426 0.726298 78.0895 0.56602 77.9889C0.405742 77.8883 0.2773 77.7443 0.195616 77.5736C0.113932 77.4029 0.0823595 77.2125 0.104566 77.0246C0.126772 76.8367 0.201847 76.6589 0.321066 76.512L62.4111 0.361956Z" fill="#D5E4FD"/>
<path d="M125.27 78.142H1.00001C0.734795 78.142 0.480441 78.0366 0.292905 77.8491C0.105369 77.6616 1.17314e-05 77.4072 1.17314e-05 77.142V1.33199C-0.000864541 1.15106 0.0473642 0.973281 0.139559 0.817599C0.231753 0.661916 0.364459 0.534164 0.523534 0.447955C0.682609 0.361747 0.862094 0.320313 1.04286 0.328068C1.22363 0.335822 1.3989 0.392476 1.55001 0.491992L62.91 38.832L125.79 76.282C125.979 76.3942 126.126 76.5657 126.208 76.7698C126.29 76.974 126.302 77.1994 126.243 77.4113C126.184 77.6231 126.056 77.8095 125.88 77.9416C125.704 78.0737 125.49 78.1441 125.27 78.142Z" fill="white"/>
</svg>
